PathFileType	4	(X/Y/Z)	C:\Users\WrightLab\Desktop\Jo\P2_Trial17.trc
DataRate	CameraRate	NumFrames	NumMarkers	Units	OrigDataRate	OrigDataStartFrame	OrigNumFrames
100.00	100.00	      20	19	mm	100.00	388	      1033
Frame#	Time	Headset_Front			Headset_Back			Headset_Left			Headset_Right			Left_Shoulder			Right_Shoulder			Sternum			C7			Left Elbow			Right Elbow			Left Wrist			Right Wrist			Left ASIS			Right ASIS			S2			Left Knee			Right Knee			Left Ankle			Right Ankle			
		X1	Y1	Z1	X2	Y2	Z2	X3	Y3	Z3	X4	Y4	Z4	X5	Y5	Z5	X6	Y6	Z6	X7	Y7	Z7	X8	Y8	Z8	X9	Y9	Z9	X10	Y10	Z10	X11	Y11	Z11	X12	Y12	Z12	X13	Y13	Z13	X14	Y14	Z14	X15	Y15	Z15	X16	Y16	Z16	X17	Y17	Z17	X18	Y18	Z18	X19	Y19	Z19	

388	3.870	123.16100	1412.76172	991.82751	193.26794	1685.98108	1116.23999	74.20836	1561.49280	1132.14307	237.39592	1510.51611	976.63190	97.04402	1471.00684	1257.82678	404.00522	1470.00085	1135.79297	238.06406	1339.81262	1158.72742	300.70367	1493.26331	1292.80908	2.24925	1132.13757	1358.74670	448.85425	1093.36340	1072.49731	-61.06328	958.47394	1318.22144	553.03778	1180.79053	1241.43079	187.87299	1073.59033	1211.96387				309.64642	1017.64661	1451.98840	89.20817	502.91370	1361.46436	458.75693	579.02441	1302.37695	96.51405	147.91405	1338.10181	440.94598	141.59027	1319.21411	
389	3.880	125.58620	1416.57959	994.18597	196.77783	1688.47900	1121.43005	76.12171	1564.33643	1135.78259	239.89563	1514.64014	980.83112	99.29443	1471.98804	1261.17944	406.09647	1471.32935	1138.68799	239.31207	1341.69092	1161.55750	302.92410	1493.68274	1296.16504	2.57192	1133.56311	1361.10376	451.01923	1095.62695	1073.36963	-62.38334	961.11810	1322.00635	555.16846	1180.71106	1243.18970	188.58469	1074.57581	1211.24036				311.22241	1017.30280	1451.47607	90.79733	503.25183	1362.25623	459.70370	579.33502	1302.23987	96.76731	148.10071	1338.10278	441.51743	140.87976	1319.97864	
390	3.890	128.08398	1420.61536	996.76117	199.31366	1690.80481	1127.09229	79.08627	1566.86804	1139.86426				102.33575	1473.67944	1264.31165	408.59912	1472.64905	1141.85291	241.81836	1343.42810	1163.55457	305.34995	1493.72400	1299.79858	2.05995	1135.07861	1362.81885	451.13098	1097.44910	1073.72925	-64.34921	963.55664	1325.62585	556.45874	1181.16809	1243.47473	190.11501	1075.63501	1210.53003				312.24036	1016.30615	1450.97131	91.78507	503.16525	1362.83557	461.00430	579.32025	1302.34509	96.91977	148.57541	1338.26270	441.84244	141.55078	1320.17017	
391	3.900	130.61253	1425.13281	999.46704	202.15605	1693.58032	1132.75317	82.15279	1569.86047	1143.79260				104.50746	1474.84985	1267.58289	410.95413	1474.03174	1145.07532	243.83025	1345.13257	1165.79016	308.21796	1493.80847	1303.33057	1.23740	1137.04834	1363.72717	452.11832	1099.59644	1073.83374	-66.74764	965.82379	1328.44995	558.28009	1181.27087	1245.16150	191.41971	1076.34766	1210.31250				312.87097	1015.63678	1450.79199	92.53967	503.20181	1363.37122	462.25369	579.68695	1301.51941	97.12135	148.62804	1338.35022	441.84244	141.55078	1320.17017	
392	3.910	132.99907	1429.49377	1002.28888	205.73952	1696.15552	1138.65698	84.99973	1572.48828	1148.37268	247.49823	1526.06641	991.62140	107.19513	1476.73450	1271.00977	413.29398	1475.17041	1148.56665	245.74266	1347.40002	1168.40820	310.63019	1494.03149	1306.65088	-0.22208	1139.31299	1365.09216	453.32599	1101.25293	1073.91406	-69.66731	969.06262	1331.03796	559.83502	1181.46411	1245.47144	193.83269	1077.69202	1210.49341				314.13348	1014.80389	1450.74902	93.74628	503.33200	1363.80664	462.84360	579.81293	1301.15247	97.25549	148.58511	1338.37134	442.67868	142.38828	1320.36707	
393	3.920	135.78236	1433.72217	1004.78168	208.69624	1698.47681	1144.48462	87.91562	1575.52002	1152.85193	251.31664	1530.06885	996.00592	109.78361	1477.77161	1273.67810	416.18298	1476.42102	1152.19458	248.13812	1348.85425	1170.29053	312.74716	1494.38281	1309.94788	-1.86806	1141.67676	1365.26294	454.49902	1102.71313	1074.73315	-72.27482	971.01880	1333.15149	561.53387	1181.39624	1246.74109	196.02032	1078.72058	1211.29639				315.21442	1014.46173	1450.34033	94.93355	502.98721	1364.46558	463.58008	579.65808	1300.40186	97.47186	148.38301	1338.50964	442.67868	142.38828	1320.36707	
394	3.930	138.13512	1438.24219	1007.95337	212.57347	1701.78162	1150.69800	90.89458	1578.35986	1157.27026	254.83134	1534.29150	999.64429	112.04301	1479.18982	1277.20532	418.76538	1477.80811	1155.34412	250.40866	1350.89160	1172.10974	315.85992	1494.45349	1313.60889	-2.73823	1143.36487	1365.93701	455.89539	1104.99414	1074.81311	-75.98552	973.78339	1334.53271	563.32642	1181.31628	1247.42627	198.09232	1080.46765	1210.66919				315.77713	1013.90845	1449.75159	96.34290	503.08319	1364.99622	464.25784	579.41345	1300.13562	97.60646	148.22945	1338.61267	443.56161	142.56024	1320.72839	
395	3.940	140.85474	1442.66064	1010.59192	215.76732	1703.66235	1156.69458	93.93713	1581.27637	1161.79419	256.80057	1538.33032	1003.07617	114.89095	1480.52844	1279.96130	421.37787	1478.99707	1159.40002	252.39699	1352.49609	1174.61292	318.36078	1494.41907	1317.06494	-3.94227	1145.76880	1366.52612	456.74750	1106.62366	1074.68762	-79.65202	977.13416	1336.33240	564.76202	1181.14319	1247.43262	199.56932	1081.17285	1210.93018				316.75388	1012.90588	1449.17712	97.11650	503.13611	1365.32874	465.13013	579.47107	1299.85718	97.85574	148.11922	1338.67810	444.84100	143.22682	1320.73767	
396	3.950	143.62871	1446.94495	1013.22485	219.76500	1706.16614	1162.46216	96.58064	1583.90771	1166.31470	260.78793	1542.87073	1006.94830	117.72723	1481.45154	1282.68237	424.19058	1480.26025	1162.99023	254.55254	1353.93896	1176.47241	320.89877	1494.27002	1320.57361	-5.18618	1147.88953	1367.46411	457.95361	1108.30627	1074.90161	-83.26915	979.81427	1336.80530	566.98706	1180.82617	1248.25940	199.92648	1082.03345	1209.96765				317.90585	1012.68585	1448.77771	96.50398	504.21536	1365.36365	466.32462	579.32318	1299.13879	97.98466	148.07449	1338.71143	445.34457	142.96245	1320.76208	
397	3.960	146.38087	1451.47180	1015.93591	222.96149	1708.53308	1169.03528	100.27742	1586.18494	1170.62000	265.22385	1546.99414	1012.24011	119.50487	1482.29541	1286.15271	426.68665	1481.17590	1166.37756	256.78400	1355.66919	1178.91833	323.13419	1494.48047	1323.96924	-5.81664	1149.51611	1368.19189	458.39325	1109.48682	1075.22668	-86.70555	982.43170	1337.14807	568.41016	1180.64258	1248.71338	202.12776	1083.40100	1209.51318	324.73718	1059.57190	1172.95874	318.72122	1012.10931	1448.67273	97.83880	504.10303	1365.54602	466.88760	579.39191	1298.54602	98.09913	148.16451	1338.76025	445.79865	143.04840	1321.26868	
398	3.970	149.24797	1455.64905	1018.71631	225.94615	1710.42383	1174.83032	103.39153	1589.18250	1174.76318	267.66821	1551.79065	1016.19556	122.88221	1483.57813	1288.85742	429.17075	1482.43896	1169.58008	258.62225	1356.85950	1181.38220	325.51080	1494.41724	1327.49487	-6.20345	1151.53503	1369.03320	460.03879	1111.03308	1074.94189	-90.17511	985.75519	1337.01636	570.83606	1180.58679	1249.51697	203.64847	1084.23181	1209.42310	326.23236	1060.98193	1172.76660	319.35471	1011.41302	1448.28149	98.92413	504.63504	1365.09448	468.31494	579.84607	1298.99756	97.98018	148.51300	1338.61377	447.72043	144.18527	1321.30139	
399	3.980	152.42365	1459.78186	1020.94946	230.08058	1712.65173	1180.78723	106.00974	1591.43237	1179.06445	271.24963	1555.14063	1021.19647	124.74722	1484.18933	1291.66187	432.16455	1483.28491	1173.29175	261.52704	1358.66687	1183.13647	327.77963	1494.03162	1330.84021	-7.15006	1153.32178	1369.83313	461.05420	1112.72424	1075.14990	-93.54828	989.09625	1336.74182	571.73895	1180.22693	1249.52710	205.43939	1085.78564	1209.36987	328.44266	1060.84680	1174.56555	319.75171	1010.48981	1447.26929	99.93547	504.97058	1364.08813	469.28375	580.09802	1298.49561	98.07801	148.85843	1338.48987	448.10547	144.27811	1321.05933	
400	3.990	155.22823	1464.05371	1023.77454	233.36809	1714.44543	1186.59473	109.40161	1593.78979	1182.89124	274.57578	1558.01501	1024.24609	127.07987	1484.89075	1294.38623	434.20447	1484.38794	1176.87427	263.57681	1359.65173	1185.63940	330.16470	1493.71216	1334.18896	-7.53906	1154.72656	1370.41846	462.45642	1114.94580	1074.83630	-96.90981	992.66974	1336.53369	573.50366	1179.90759	1249.86865	206.68893	1086.26257	1209.03772	330.12711	1062.11804	1174.53149	320.68491	1010.31299	1447.31567	100.60278	505.19391	1362.77539	470.33960	579.87518	1298.35889	98.17555	149.32317	1338.61829	448.41266	144.33232	1321.31702	
401	4.000	158.53996	1467.77454	1026.10266	237.24692	1716.39526	1191.92334	112.00763	1596.19812	1186.83289	276.73788	1561.21777	1027.75281	129.22707	1486.16687	1297.01648	437.21988	1485.37439	1180.33008	265.86130	1361.52917	1188.02966	331.95810	1493.87366	1337.49744	-8.39180	1156.52222	1371.73230	463.19046	1115.96533	1074.65466	-99.35134	996.13922	1335.90845	575.12085	1179.39563	1250.42285	207.54607	1087.14990	1209.00720	331.22403	1062.71741	1173.46631	321.48587	1009.16455	1447.03882	101.25871	505.78134	1361.38562	471.40668	579.93170	1298.49109	98.53371	149.45551	1338.35681	448.67969	144.54686	1321.23828	
402	4.010	161.46530	1471.79358	1028.90662	239.78529	1718.48694	1197.59241	115.17603	1598.52625	1190.70935	279.68698	1564.71289	1031.19385	131.62959	1486.52393	1299.43762	439.39627	1486.22900	1183.65869	268.23837	1362.32776	1190.25562	334.04037	1493.96985	1339.67224	-8.26867	1157.45020	1371.71631	464.08292	1117.73877	1074.43408	-101.95546	1000.05524	1334.87109	576.10077	1179.07349	1250.31238	208.81645	1088.22021	1208.22192	332.91980	1063.36987	1172.88440	322.20068	1008.34351	1446.39294	101.52474	506.19666	1359.73157	472.39981	579.85590	1297.92859	98.62407	149.59251	1338.28064	449.35284	144.54753	1321.62219	
403	4.020	164.63783	1475.58716	1031.32178	243.29126	1719.90918	1203.37549	117.93775	1600.28833	1194.13635	283.98941	1568.57947	1035.57227	133.58875	1487.32751	1301.95898	441.93918	1487.10852	1187.42249	270.48212	1363.13550	1192.46240	336.67581	1493.62036	1343.26025	-8.48872	1158.82605	1372.20898	465.03314	1119.89197	1073.60962	-104.07371	1002.98145	1334.06653	577.28583	1178.69971	1250.78955	209.98857	1089.16077	1208.10266	333.92694	1065.22107	1170.15625	322.15323	1007.93298	1445.97009	102.23627	506.36899	1357.58215	473.29004	579.38458	1297.63538	98.64061	149.72131	1338.23389	449.67126	144.94106	1321.18152	
404	4.030	167.81776	1479.16382	1033.69507	246.96465	1721.29041	1207.73242	120.90501	1602.65442	1197.70129	286.89441	1571.14087	1039.07251	135.58144	1487.81824	1304.27002	444.76263	1487.90344	1191.13977	273.04309	1364.91772	1194.63416	338.13565	1493.01428	1346.05408	-8.34146	1159.74390	1372.65442	465.89883	1120.87329	1074.00989	-105.94213	1006.41022	1332.72119	578.67542	1178.30420	1252.03369	211.76244	1089.77893	1208.03235	335.75772	1065.77014	1171.13464	322.26154	1007.29962	1445.91589	101.36868	506.55850	1354.64917	474.41101	579.05994	1298.06360	98.92039	150.04364	1338.05273	449.92157	144.62968	1321.34558	
405	4.040	171.42033	1482.21851	1035.61206	249.83478	1722.66309	1213.08936	123.29703	1604.45923	1201.00464	291.90381	1574.76697	1043.67212	137.61226	1488.76807	1306.86719	447.23883	1488.44629	1194.03552	274.81088	1365.87500	1196.96094	340.39468	1493.27820	1349.94678	-8.47241	1160.69556	1373.13391	467.68945	1123.20850	1073.62903	-107.78685	1010.06488	1331.59729	579.53375	1177.78003	1252.12903	214.36412	1090.43225	1207.97913	337.43951	1065.47729	1172.50586	322.38397	1006.61023	1445.73987	101.61303	507.57126	1352.05444	475.27866	578.69592	1298.04102	99.19283	150.33650	1337.91248	451.13870	144.12390	1321.36938	
406	4.050	174.25493	1485.75281	1038.29700	251.65982	1724.51355	1218.32178	126.68903	1606.07471	1203.87390	294.88263	1577.35364	1047.19043	139.71208	1489.64917	1308.87036	449.58789	1489.00220	1196.70923	277.20361	1366.50513	1198.96704	342.23553	1492.75330	1352.02222	-8.00850	1161.80103	1373.40979	468.73459	1124.49829	1074.32458	-108.48093	1013.28845	1330.20227	580.61139	1177.80261	1252.54590	215.38451	1091.00000	1207.42969	338.66772	1066.75403	1170.84583	322.39090	1005.98871	1445.52454	100.20537	507.80679	1348.18164	476.26825	578.31293	1298.53687	99.18471	150.47508	1337.80896	448.98065	142.27094	1321.77271	
407	4.060	177.34975	1488.80786	1040.61975	255.07806	1725.18384	1222.83264	128.77948	1607.96045	1207.16003	297.98376	1579.96484	1050.87024	141.59271	1490.19019	1311.50476	451.54419	1489.73059	1199.62866	279.39261	1367.73389	1200.70679	343.84735	1492.08179	1354.69312	-8.02440	1162.96887	1374.09778	469.79242	1126.13586	1073.34253	-109.96754	1016.53778	1329.29712	581.65607	1177.34387	1253.64063	216.82820	1091.53455	1206.87109	340.66391	1067.67578	1172.32935	322.48618	1005.49548	1445.31323	99.54068	508.69110	1344.93823	477.16129	578.11218	1298.50610	99.10731	150.66777	1337.63513	449.29077	141.23401	1322.32458	
